<svg t="1708248275793" class="icon" viewBox="0 0 1024 1024" version="1.1" xmlns="http://www.w3.org/2000/svg" p-id="6607" width="16" height="16"><path d="M905.984 722.986667h-0.042667zM297.472 150.826667L216.064 232.234667c-29.269333 29.226667-38.613333 72.277333-23.893333 109.653333a891.306667 891.306667 0 0 0 200.106666 304.469333 890.666667 890.666667 0 0 0 304.469334 200.106667c37.376 14.72 80.426667 5.376 109.653333-23.893333l81.408-81.408-136.618667-97.621334-76.245333 76.202667a63.488 63.488 0 0 1-77.653333 9.770667 839.253333 839.253333 0 0 1-288.170667-288.213334 63.616 63.616 0 0 1 9.728-77.653333L395.093333 287.445333 297.472 150.826667zM733.013333 938.666667a183.893333 183.893333 0 0 1-67.584-12.8 976 976 0 0 1-333.525333-219.178667 977.066667 977.066667 0 0 1-219.136-333.482667c-27.221333-69.034667-10.325333-148.053333 42.965333-201.344l99.584-99.541333a63.914667 63.914667 0 0 1 50.218667-18.389333c18.645333 1.536 35.584 11.136 46.464 26.368l123.264 172.544a63.402667 63.402667 0 0 1-6.826667 81.92l-77.226666 77.226666a753.92 753.92 0 0 0 235.434666 235.392l77.226667-77.226666a63.317333 63.317333 0 0 1 81.92-6.784l172.501333 123.264a63.488 63.488 0 0 1 7.978667 96.725333l-99.541333 99.541333A189.354667 189.354667 0 0 1 733.013333 938.666667z" fill="#000000" p-id="6608"></path></svg>